<?xml version="1.0" encoding="UTF-8"?>
<svg width="34px" height="30px" viewBox="0 0 34 30" version="1.1" xmlns="http://www.w3.org/2000/svg" xmlns:xlink="http://www.w3.org/1999/xlink">
    <title>ClubIcon</title>
    <g id="ClubIcon" stroke="none" stroke-width="1" fill="none" fill-rule="evenodd">
        <path d="M17.432023,0 C13.9901749,0 11.2005429,2.793 11.2005429,6.2409 C11.2005429,8.0196 11.9560115,9.6192 13.1493187,10.7571 C14.0713234,11.6355 15.3857478,13.6287 15.8232837,15.2271 C14.9694075,14.712 14.2015244,14.1252 13.7385539,13.6386 C12.6027773,12.4434 11.0061498,11.7099 9.23026886,11.7099 C5.78811798,11.7096 3,14.502 3,17.9499 C3,21.3972 5.78811798,24.1905 9.23057165,24.1905 C11.0061498,24.1905 12.6030801,23.4345 13.7388567,22.2393 C14.2254451,21.7266 15.0496476,21.078 15.9583294,20.5368 C15.8314591,26.2605 13.8696633,30 10.2948891,30 L24.5903524,30 C21.0061916,30 19.0225946,26.2401 18.9048081,20.4915 C19.863148,21.0426 20.7548734,21.7068 21.2605377,22.2393 C22.3969199,23.4345 23.992639,24.1905 25.7694283,24.1905 C29.2109736,24.1905 32,21.3972 32,17.9499 C32,14.502 29.2109736,11.7096 25.7694283,11.7096 C23.9929418,11.7096 22.3969199,12.4431 21.2605377,13.6383 C20.7790968,14.1447 19.9436909,14.7444 19.0398538,15.2721 C19.4643696,13.6665 20.8054398,11.6442 21.7365283,10.7571 C22.9295328,9.6192 23.661989,8.0196 23.661989,6.2409 C23.661989,2.793 20.8729627,0 17.432023,0 Z" id="Club" fill="#000000" fill-rule="nonzero"></path>
    </g>
</svg>