<?xml version="1.0" encoding="UTF-8"?>
<svg width="34px" height="30px" viewBox="0 0 34 30" version="1.1" xmlns="http://www.w3.org/2000/svg" xmlns:xlink="http://www.w3.org/1999/xlink">
    <title>SpadeIcon</title>
    <g id="SpadeIcon" stroke="none" stroke-width="1" fill="none" fill-rule="evenodd">
        <path d="M28.7116315,11.582465 L17.2386768,0.0990271755 C17.1067611,-0.0330090585 16.8931994,-0.0330090585 16.7616211,0.0990271755 L5.28832896,11.582465 C2.17026017,14.7033828 2.23874837,19.8055195 5.49345619,22.8393137 C8.59364383,25.7292526 13.4741873,25.5070535 16.4694497,22.5087166 L16.883078,22.0947104 C16.947855,22.0298742 17.0524429,22.0298742 17.1172199,22.0947104 L17.5308482,22.5087166 C20.5264479,25.5070535 25.4069914,25.7289149 28.5068417,22.8393137 C31.7612121,19.8055195 31.8297003,14.7033828 28.7116315,11.582465 Z M22.1991795,28.4611532 C20.5406179,28.19134 18.9363745,26.3853815 17.6631012,25.1106071 L17.1195816,24.5665908 C17.0537924,24.5007415 16.9468428,24.5007415 16.8810537,24.5665908 L16.3371966,25.1106071 C15.063586,26.3853815 13.4593426,28.19134 11.8011184,28.4611532 C11.719135,28.4746607 11.6584065,28.5418607 11.6584065,28.6249321 L11.6584065,29.8311557 C11.6584065,29.9243578 11.7339797,30 11.8270967,30 L22.1735386,30 C22.2666555,30 22.3422287,29.9243578 22.3422287,29.8311557 L22.3422287,28.6249321 C22.3418913,28.5418607 22.2811629,28.474323 22.1991795,28.4611532 Z" id="Spade" fill="#000000" fill-rule="nonzero"></path>
    </g>
</svg>